<svg id="Layer_1" data-name="Layer 1" xmlns="http://www.w3.org/2000/svg" viewBox="0 0 258 208.89"><defs><style>.cls-1{fill:#9990c5;}.cls-2,.cls-4{fill:#1b75bc;}.cls-3{fill:#fff;}.cls-4{font-size:12.1px;}.cls-4,.cls-5{font-family:Corbel-Bold, Corbel;font-weight:700;}.cls-5{font-size:15.11px;fill:#808285;}</style></defs><title>Artboard 8</title><path class="cls-1" d="M188.67,103.26H183V52.85h-13.3l-9.22,12.84a22.67,22.67,0,1,1-26.36,36.69l-.1.13H103.62v13.77h14.86a12.91,12.91,0,0,1-3.87,3.78,15.76,15.76,0,0,1-8.33,2,17.72,17.72,0,0,1-13-5.1,16.48,16.48,0,0,1-5.22-12.38,16,16,0,0,1,5-12,17,17,0,0,1,12.52-4.94c5.83,0,10.81,2.27,15.23,6.94l1.32,1.4L127,91.28a22.62,22.62,0,0,1-.37-10.8,28.65,28.65,0,0,0-6.68-4.1,36.57,36.57,0,0,0-14.39-2.85c-9.82,0-17.92,3.5-24.07,10.4a30,30,0,0,0-7.82,20.58,32.07,32.07,0,0,0,4.22,16A29.66,29.66,0,0,0,89.43,132a33.51,33.51,0,0,0,16.45,4A30.06,30.06,0,0,0,121,132.35a28.56,28.56,0,0,0,10.55-10.73,31.18,31.18,0,0,0,1.81-3.68h35.17v17.37H183V117.94h9.23V107Z"/><circle class="cls-2" cx="148.84" cy="85.14" r="20.8"/><path class="cls-3" d="M137.67,77.46s.39,1.43,3.63,2.7L153.69,85s2.75.44,2.75,4.79v11.29s.28,2.64-3,1.27-13.6-5.28-13.6-5.28a3.84,3.84,0,0,1-2.2-3.74C137.78,90.51,137.67,77.46,137.67,77.46Z"/><path class="cls-3" d="M156.45,82V69c0-2.2-2.32-1.32-2.32-1.32s-7.1,3-10.79,4.29-5.06,2.09-5.12,4,2.26,3,2.26,3l4.33,1.68,10-4.24a.44.44,0,1,1,.34.81L146,81.09l8.92,3.47C156.67,84.34,156.45,82,156.45,82Zm-1.32-10.44-13.87,5.89a.43.43,0,0,1-.17,0,.44.44,0,0,1-.17-.85l13.87-5.89a.44.44,0,1,1,.34.81Z"/><text class="cls-4" transform="translate(131.92 130.02)">FOR IT</text><text class="cls-5" transform="translate(73.68 154.01)">UNIVERSAL PASS</text></svg>