<?xml version="1.0" encoding="utf-8"?>
<!-- Generator: Adobe Illustrator 21.0.2, SVG Export Plug-In . SVG Version: 6.00 Build 0)  -->
<svg version="1.1" id="Layer_1" xmlns="http://www.w3.org/2000/svg" xmlns:xlink="http://www.w3.org/1999/xlink" x="0px" y="0px"
	 viewBox="0 0 176 154.7" style="enable-background:new 0 0 176 154.7;" xml:space="preserve">
<style type="text/css">
	.st0{fill:#926D5A;}
	.st1{fill:#DB9C94;}
	.st2{fill:#FFFFFF;}
	.st3{fill:#39C0C4;}
	.st4{fill:#808285;}
	.st5{fill:#ED1C24;}
	.st6{fill:#00A651;}
	.st7{fill:#1B75BC;}
	.st8{fill:#9990C5;}
	.st9{fill:#6DC8BF;}
	.st10{fill:#005757;}
	.st11{fill:#3E7B7D;}
	.st12{fill:#00587E;}
	.st13{fill:#EF4136;}
	.st14{fill:#F15A29;}
	.st15{fill:#982068;}
	.st16{fill:#ED2590;}
	.st17{fill:#025C2F;}
	.st18{fill:#671448;}
	.st19{fill:#086192;}
	.st20{fill:#BE1E2D;}
	.st21{fill:#7A442B;}
</style>
<circle class="st7" cx="78.7" cy="81.4" r="52"/>
<path class="st7" d="M51.7,71.1l8.9,2.4l-8.4-12.4l40.7-21.2c1.2,0.2,35.6,54.5,35.9,54.9c1.1-4.3,1.8-8.8,1.8-13.4
	c0-28.7-23.3-52-52-52c-28.7,0-52,23.3-52,52c0,25.9,19,47.3,43.8,51.3l-18.8-26V71.1z"/>
<path class="st19" d="M127.1,100c-0.3-0.4-33-59.8-34.2-60.1L52.3,61.1l8.4,12.4l-8.9-2.4v35.6l18.8,26c2.7,0.4,5.4,0.8,8.2,0.7
	C102.6,132.7,117.6,118.1,127.1,100z"/>
<g>
	<path class="st2" d="M91.9,123.4c-0.9,0-2.1-0.3-3.4-0.9c-7.9-3.4-33.3-12.9-33.5-13c-0.2-0.1-4.8-2.1-4.6-8
		c0.2-5.5,0.1-26.6,0-35.3c1.5,1.3,3.7,2.7,7.2,4.1L88,82.2c0.5,0.1,6,1.2,6,10.6v27.8c0,0.5,0,1.6-0.6,2.3
		C93.1,123.3,92.6,123.4,91.9,123.4z"/>
	<path class="st2" d="M72.9,71.4L89,64.5c0.6-0.2,1-0.7,1.3-1.3c0.2-0.6,0.2-1.2,0-1.8C89.9,60.5,89,60,88.1,60h-0.3l-0.7,0.2
		l-20.5,8.7l-10.2-4c0,0-4.8-2.4-4.7-6.1c0.1-3.6,2.4-5.2,11.7-8.6c9-3.2,26.4-10.5,26.6-10.6l0,0c0,0,0.9-0.3,1.9-0.3
		c1.1,0,2,0.3,2,2.4v31.9c0,0.3,0.4,4.4-2.4,5L72.9,71.4z M85.6,46.8l-25,10.7c-1.2,0.5-1.8,1.9-1.3,3.1c0.4,0.9,1.2,1.4,2.2,1.4
		h0.3l0.7-0.2l25-10.7c0.6-0.2,1-0.7,1.3-1.3c0.2-0.6,0.2-1.2,0-1.8c-0.4-0.9-1.2-1.4-2.2-1.4h-0.3L85.6,46.8z"/>
</g>
</svg>
